<mxfile host="app.diagrams.net" modified="2023-04-07T16:38:19.823Z" agent="Mozilla/5.0 (X11; Linux x86_64; rv:109.0) Gecko/20100101 Firefox/111.0" etag="UmJkl5QqFo8SfSMNWimE" version="21.1.4">
  <diagram name="Page-1" id="IaMU4KBefqwBcv7kMBbT">
    <mxGraphModel dx="1165" dy="635" grid="0" gridSize="10" guides="1" tooltips="1" connect="1" arrows="1" fold="1" page="1" pageScale="1" pageWidth="827" pageHeight="1169" math="0" shadow="0">
      <root>
        <mxCell id="0" />
        <mxCell id="1" parent="0" />
        <mxCell id="P3yzLBE_eazJCCD9I9Q--5" style="edgeStyle=orthogonalEdgeStyle;rounded=0;orthogonalLoop=1;jettySize=auto;html=1;entryX=0.5;entryY=0;entryDx=0;entryDy=0;" edge="1" parent="1" source="P3yzLBE_eazJCCD9I9Q--1" target="P3yzLBE_eazJCCD9I9Q--2">
          <mxGeometry relative="1" as="geometry" />
        </mxCell>
        <mxCell id="P3yzLBE_eazJCCD9I9Q--1" value="Начало" style="rounded=1;whiteSpace=wrap;html=1;" vertex="1" parent="1">
          <mxGeometry x="354" y="10" width="120" height="60" as="geometry" />
        </mxCell>
        <mxCell id="P3yzLBE_eazJCCD9I9Q--6" style="edgeStyle=orthogonalEdgeStyle;rounded=0;orthogonalLoop=1;jettySize=auto;html=1;entryX=0.5;entryY=0;entryDx=0;entryDy=0;" edge="1" parent="1" source="P3yzLBE_eazJCCD9I9Q--2" target="P3yzLBE_eazJCCD9I9Q--3">
          <mxGeometry relative="1" as="geometry" />
        </mxCell>
        <mxCell id="P3yzLBE_eazJCCD9I9Q--2" value="Ввод длины массива N" style="shape=parallelogram;perimeter=parallelogramPerimeter;whiteSpace=wrap;html=1;fixedSize=1;" vertex="1" parent="1">
          <mxGeometry x="354" y="90" width="120" height="60" as="geometry" />
        </mxCell>
        <mxCell id="P3yzLBE_eazJCCD9I9Q--8" style="edgeStyle=orthogonalEdgeStyle;rounded=0;orthogonalLoop=1;jettySize=auto;html=1;entryX=0.5;entryY=0;entryDx=0;entryDy=0;" edge="1" parent="1" source="P3yzLBE_eazJCCD9I9Q--3" target="P3yzLBE_eazJCCD9I9Q--7">
          <mxGeometry relative="1" as="geometry" />
        </mxCell>
        <mxCell id="P3yzLBE_eazJCCD9I9Q--3" value="Ввод массива userArray" style="shape=parallelogram;perimeter=parallelogramPerimeter;whiteSpace=wrap;html=1;fixedSize=1;" vertex="1" parent="1">
          <mxGeometry x="354" y="170" width="120" height="60" as="geometry" />
        </mxCell>
        <mxCell id="P3yzLBE_eazJCCD9I9Q--11" style="edgeStyle=orthogonalEdgeStyle;rounded=0;orthogonalLoop=1;jettySize=auto;html=1;entryX=0.5;entryY=0;entryDx=0;entryDy=0;" edge="1" parent="1" source="P3yzLBE_eazJCCD9I9Q--7" target="P3yzLBE_eazJCCD9I9Q--10">
          <mxGeometry relative="1" as="geometry" />
        </mxCell>
        <mxCell id="P3yzLBE_eazJCCD9I9Q--7" value="count = 0" style="rounded=0;whiteSpace=wrap;html=1;" vertex="1" parent="1">
          <mxGeometry x="354" y="250" width="120" height="60" as="geometry" />
        </mxCell>
        <mxCell id="P3yzLBE_eazJCCD9I9Q--14" style="edgeStyle=orthogonalEdgeStyle;rounded=0;orthogonalLoop=1;jettySize=auto;html=1;entryX=0.5;entryY=0;entryDx=0;entryDy=0;" edge="1" parent="1" source="P3yzLBE_eazJCCD9I9Q--10" target="P3yzLBE_eazJCCD9I9Q--13">
          <mxGeometry relative="1" as="geometry" />
        </mxCell>
        <mxCell id="P3yzLBE_eazJCCD9I9Q--29" style="edgeStyle=orthogonalEdgeStyle;rounded=0;orthogonalLoop=1;jettySize=auto;html=1;entryX=0.5;entryY=0;entryDx=0;entryDy=0;" edge="1" parent="1" source="P3yzLBE_eazJCCD9I9Q--10" target="P3yzLBE_eazJCCD9I9Q--28">
          <mxGeometry relative="1" as="geometry">
            <Array as="points">
              <mxPoint x="560" y="370" />
              <mxPoint x="560" y="770" />
              <mxPoint x="414" y="770" />
            </Array>
          </mxGeometry>
        </mxCell>
        <mxCell id="P3yzLBE_eazJCCD9I9Q--10" value="i = 0, N-1,1" style="shape=hexagon;perimeter=hexagonPerimeter2;whiteSpace=wrap;html=1;fixedSize=1;" vertex="1" parent="1">
          <mxGeometry x="354" y="330" width="120" height="80" as="geometry" />
        </mxCell>
        <mxCell id="P3yzLBE_eazJCCD9I9Q--19" style="edgeStyle=orthogonalEdgeStyle;rounded=0;orthogonalLoop=1;jettySize=auto;html=1;entryX=0.5;entryY=0;entryDx=0;entryDy=0;" edge="1" parent="1" source="P3yzLBE_eazJCCD9I9Q--12" target="P3yzLBE_eazJCCD9I9Q--18">
          <mxGeometry relative="1" as="geometry" />
        </mxCell>
        <mxCell id="P3yzLBE_eazJCCD9I9Q--24" style="edgeStyle=orthogonalEdgeStyle;rounded=0;orthogonalLoop=1;jettySize=auto;html=1;" edge="1" parent="1" source="P3yzLBE_eazJCCD9I9Q--12">
          <mxGeometry relative="1" as="geometry">
            <mxPoint x="240" y="550" as="targetPoint" />
          </mxGeometry>
        </mxCell>
        <mxCell id="P3yzLBE_eazJCCD9I9Q--12" value="k &amp;lt;= 3" style="rhombus;whiteSpace=wrap;html=1;" vertex="1" parent="1">
          <mxGeometry x="374" y="510" width="80" height="80" as="geometry" />
        </mxCell>
        <mxCell id="P3yzLBE_eazJCCD9I9Q--15" style="edgeStyle=orthogonalEdgeStyle;rounded=0;orthogonalLoop=1;jettySize=auto;html=1;entryX=0.5;entryY=0;entryDx=0;entryDy=0;" edge="1" parent="1" source="P3yzLBE_eazJCCD9I9Q--13" target="P3yzLBE_eazJCCD9I9Q--12">
          <mxGeometry relative="1" as="geometry" />
        </mxCell>
        <mxCell id="P3yzLBE_eazJCCD9I9Q--13" value="k = userArray[i].Length" style="rounded=0;whiteSpace=wrap;html=1;" vertex="1" parent="1">
          <mxGeometry x="332" y="430" width="164" height="60" as="geometry" />
        </mxCell>
        <mxCell id="P3yzLBE_eazJCCD9I9Q--21" style="edgeStyle=orthogonalEdgeStyle;rounded=0;orthogonalLoop=1;jettySize=auto;html=1;entryX=0.5;entryY=0;entryDx=0;entryDy=0;" edge="1" parent="1" source="P3yzLBE_eazJCCD9I9Q--18" target="P3yzLBE_eazJCCD9I9Q--20">
          <mxGeometry relative="1" as="geometry" />
        </mxCell>
        <mxCell id="P3yzLBE_eazJCCD9I9Q--18" value="resultArray[count] = userArray[i]" style="rounded=0;whiteSpace=wrap;html=1;" vertex="1" parent="1">
          <mxGeometry x="307" y="610" width="214" height="60" as="geometry" />
        </mxCell>
        <mxCell id="P3yzLBE_eazJCCD9I9Q--22" style="edgeStyle=orthogonalEdgeStyle;rounded=0;orthogonalLoop=1;jettySize=auto;html=1;entryX=0;entryY=0.5;entryDx=0;entryDy=0;" edge="1" parent="1" source="P3yzLBE_eazJCCD9I9Q--20" target="P3yzLBE_eazJCCD9I9Q--10">
          <mxGeometry relative="1" as="geometry">
            <mxPoint x="260" y="500" as="targetPoint" />
            <Array as="points">
              <mxPoint x="240" y="720" />
              <mxPoint x="240" y="370" />
            </Array>
          </mxGeometry>
        </mxCell>
        <mxCell id="P3yzLBE_eazJCCD9I9Q--27" style="edgeStyle=orthogonalEdgeStyle;rounded=0;orthogonalLoop=1;jettySize=auto;html=1;" edge="1" parent="1" source="P3yzLBE_eazJCCD9I9Q--20">
          <mxGeometry relative="1" as="geometry">
            <mxPoint x="240" y="640" as="targetPoint" />
          </mxGeometry>
        </mxCell>
        <mxCell id="P3yzLBE_eazJCCD9I9Q--20" value="count = count + 1" style="rounded=0;whiteSpace=wrap;html=1;" vertex="1" parent="1">
          <mxGeometry x="354" y="690" width="120" height="60" as="geometry" />
        </mxCell>
        <mxCell id="P3yzLBE_eazJCCD9I9Q--23" value="&lt;div&gt;да&lt;/div&gt;" style="text;html=1;strokeColor=none;fillColor=none;align=center;verticalAlign=middle;whiteSpace=wrap;rounded=0;" vertex="1" parent="1">
          <mxGeometry x="400" y="580" width="60" height="30" as="geometry" />
        </mxCell>
        <mxCell id="P3yzLBE_eazJCCD9I9Q--26" value="нет" style="text;html=1;strokeColor=none;fillColor=none;align=center;verticalAlign=middle;whiteSpace=wrap;rounded=0;" vertex="1" parent="1">
          <mxGeometry x="330" y="520" width="60" height="30" as="geometry" />
        </mxCell>
        <mxCell id="P3yzLBE_eazJCCD9I9Q--30" value="Конец" style="rounded=1;whiteSpace=wrap;html=1;" vertex="1" parent="1">
          <mxGeometry x="354" y="890" width="120" height="60" as="geometry" />
        </mxCell>
        <mxCell id="P3yzLBE_eazJCCD9I9Q--34" value="" style="endArrow=classic;html=1;rounded=0;" edge="1" parent="1">
          <mxGeometry width="50" height="50" relative="1" as="geometry">
            <mxPoint x="413.58" y="840" as="sourcePoint" />
            <mxPoint x="413.58" y="890" as="targetPoint" />
          </mxGeometry>
        </mxCell>
        <mxCell id="P3yzLBE_eazJCCD9I9Q--28" value="&lt;div&gt;Вывод&lt;/div&gt;&lt;div&gt;массива&lt;/div&gt;&lt;div&gt;resultArray&lt;br&gt;&lt;/div&gt;" style="shape=document;whiteSpace=wrap;html=1;boundedLbl=1;" vertex="1" parent="1">
          <mxGeometry x="354" y="790" width="120" height="80" as="geometry" />
        </mxCell>
      </root>
    </mxGraphModel>
  </diagram>
</mxfile>
